<?xml version="1.0" standalone="no"?>
<!DOCTYPE svg PUBLIC "-//W3C//DTD SVG 20010904//EN"
 "http://www.w3.org/TR/2001/REC-SVG-20010904/DTD/svg10.dtd">
<svg version="1.0" xmlns="http://www.w3.org/2000/svg"
 width="700.000000pt" height="700.000000pt" viewBox="0 0 700.000000 700.000000"
 preserveAspectRatio="xMidYMid meet">
<metadata>
Created by potrace 1.11, written by Peter Selinger 2001-2013
</metadata>
<g transform="translate(0.000000,700.000000) scale(0.100000,-0.100000)"
fill="#000000" stroke="none">
<path d="M1778 6995 c-2 -1 -43 -5 -91 -9 -48 -4 -93 -9 -100 -11 -7 -2 -29
-7 -51 -10 -66 -9 -239 -55 -285 -76 -24 -10 -49 -19 -55 -19 -18 0 -224 -103
-301 -150 -414 -254 -714 -661 -833 -1130 -16 -63 -33 -140 -37 -170 -4 -30
-10 -82 -15 -115 -5 -33 -8 -847 -8 -1810 0 -1869 0 -1843 49 -2050 25 -103
54 -196 75 -242 8 -17 14 -34 14 -37 0 -3 20 -48 44 -100 174 -369 489 -690
859 -872 123 -61 300 -124 422 -149 199 -42 96 -40 2015 -40 998 0 1841 3
1872 7 642 82 1189 478 1466 1060 78 165 118 300 168 563 4 22 9 846 10 1830
2 1807 2 1818 -30 2010 -10 58 -58 230 -84 300 -99 265 -283 542 -476 716 -28
24 -57 51 -66 60 -30 28 -169 128 -235 169 -202 123 -448 215 -670 250 -38 6
-81 14 -95 17 -23 6 -3555 14 -3562 8z"/>
</g>
</svg>
